<mxfile modified="2022-08-01T03:36:33.008Z" host="app.diagrams.net" agent="5.0 (Windows NT 10.0; Win64; x64) AppleWebKit/537.36 (KHTML, like Gecko) Chrome/103.0.0.0 Safari/537.36" etag="3nMh1DOB50yZLTHayaiV" version="20.2.2" type="github">
  <diagram id="Ht1M8jgEwFfnCIfOTk4-" name="Page-1">
    <mxGraphModel dx="1038" dy="547" grid="1" gridSize="10" guides="1" tooltips="1" connect="1" arrows="1" fold="1" page="1" pageScale="1" pageWidth="1169" pageHeight="827" math="0" shadow="0">
      <root>
        <mxCell id="0" />
        <mxCell id="1" parent="0" />
        <mxCell id="UEzPUAAOIrF-is8g5C7q-205" value="AWS Cloud" style="points=[[0,0],[0.25,0],[0.5,0],[0.75,0],[1,0],[1,0.25],[1,0.5],[1,0.75],[1,1],[0.75,1],[0.5,1],[0.25,1],[0,1],[0,0.75],[0,0.5],[0,0.25]];outlineConnect=0;gradientColor=none;html=1;whiteSpace=wrap;fontSize=12;fontStyle=0;shape=mxgraph.aws4.group;grIcon=mxgraph.aws4.group_aws_cloud_alt;strokeColor=#232F3E;fillColor=none;verticalAlign=top;align=left;spacingLeft=30;fontColor=#232F3E;dashed=0;labelBackgroundColor=#ffffff;container=1;pointerEvents=0;collapsible=0;recursiveResize=0;" parent="1" vertex="1">
          <mxGeometry x="224.5" y="100" width="635.5" height="400" as="geometry" />
        </mxCell>
        <mxCell id="6b2FWjLcwO0k-tA4K5_2-13" style="edgeStyle=orthogonalEdgeStyle;rounded=0;orthogonalLoop=1;jettySize=auto;html=1;" edge="1" parent="UEzPUAAOIrF-is8g5C7q-205" source="6b2FWjLcwO0k-tA4K5_2-2" target="6b2FWjLcwO0k-tA4K5_2-10">
          <mxGeometry relative="1" as="geometry" />
        </mxCell>
        <mxCell id="6b2FWjLcwO0k-tA4K5_2-2" value="" style="outlineConnect=0;dashed=0;verticalLabelPosition=bottom;verticalAlign=top;align=center;html=1;shape=mxgraph.aws3.classic_load_balancer;fillColor=#F58534;gradientColor=none;" vertex="1" parent="UEzPUAAOIrF-is8g5C7q-205">
          <mxGeometry x="273.5" y="15" width="69" height="67.5" as="geometry" />
        </mxCell>
        <mxCell id="6b2FWjLcwO0k-tA4K5_2-8" value="" style="sketch=0;points=[[0,0,0],[0.25,0,0],[0.5,0,0],[0.75,0,0],[1,0,0],[0,1,0],[0.25,1,0],[0.5,1,0],[0.75,1,0],[1,1,0],[0,0.25,0],[0,0.5,0],[0,0.75,0],[1,0.25,0],[1,0.5,0],[1,0.75,0]];outlineConnect=0;fontColor=#232F3E;gradientColor=#F78E04;gradientDirection=north;fillColor=#D05C17;strokeColor=#ffffff;dashed=0;verticalLabelPosition=bottom;verticalAlign=top;align=center;html=1;fontSize=12;fontStyle=0;aspect=fixed;shape=mxgraph.aws4.resourceIcon;resIcon=mxgraph.aws4.compute;" vertex="1" parent="UEzPUAAOIrF-is8g5C7q-205">
          <mxGeometry x="165.5" y="295" width="78" height="78" as="geometry" />
        </mxCell>
        <mxCell id="6b2FWjLcwO0k-tA4K5_2-9" value="" style="sketch=0;points=[[0,0,0],[0.25,0,0],[0.5,0,0],[0.75,0,0],[1,0,0],[0,1,0],[0.25,1,0],[0.5,1,0],[0.75,1,0],[1,1,0],[0,0.25,0],[0,0.5,0],[0,0.75,0],[1,0.25,0],[1,0.5,0],[1,0.75,0]];outlineConnect=0;fontColor=#232F3E;gradientColor=#F78E04;gradientDirection=north;fillColor=#D05C17;strokeColor=#ffffff;dashed=0;verticalLabelPosition=bottom;verticalAlign=top;align=center;html=1;fontSize=12;fontStyle=0;aspect=fixed;shape=mxgraph.aws4.resourceIcon;resIcon=mxgraph.aws4.compute;" vertex="1" parent="UEzPUAAOIrF-is8g5C7q-205">
          <mxGeometry x="375.5" y="300" width="78" height="78" as="geometry" />
        </mxCell>
        <mxCell id="6b2FWjLcwO0k-tA4K5_2-11" style="edgeStyle=orthogonalEdgeStyle;rounded=0;orthogonalLoop=1;jettySize=auto;html=1;entryX=0.5;entryY=0;entryDx=0;entryDy=0;entryPerimeter=0;" edge="1" parent="UEzPUAAOIrF-is8g5C7q-205" source="6b2FWjLcwO0k-tA4K5_2-10" target="6b2FWjLcwO0k-tA4K5_2-8">
          <mxGeometry relative="1" as="geometry" />
        </mxCell>
        <mxCell id="6b2FWjLcwO0k-tA4K5_2-21" value="HTTP port 80" style="edgeLabel;html=1;align=center;verticalAlign=middle;resizable=0;points=[];" vertex="1" connectable="0" parent="6b2FWjLcwO0k-tA4K5_2-11">
          <mxGeometry x="0.2419" y="-2" relative="1" as="geometry">
            <mxPoint as="offset" />
          </mxGeometry>
        </mxCell>
        <mxCell id="6b2FWjLcwO0k-tA4K5_2-12" style="edgeStyle=orthogonalEdgeStyle;rounded=0;orthogonalLoop=1;jettySize=auto;html=1;" edge="1" parent="UEzPUAAOIrF-is8g5C7q-205" source="6b2FWjLcwO0k-tA4K5_2-10" target="6b2FWjLcwO0k-tA4K5_2-9">
          <mxGeometry relative="1" as="geometry" />
        </mxCell>
        <mxCell id="6b2FWjLcwO0k-tA4K5_2-20" value="HTTP&amp;nbsp; port 80" style="edgeLabel;html=1;align=center;verticalAlign=middle;resizable=0;points=[];" vertex="1" connectable="0" parent="6b2FWjLcwO0k-tA4K5_2-12">
          <mxGeometry x="0.2302" y="3" relative="1" as="geometry">
            <mxPoint as="offset" />
          </mxGeometry>
        </mxCell>
        <mxCell id="6b2FWjLcwO0k-tA4K5_2-10" value="" style="sketch=0;outlineConnect=0;fontColor=#232F3E;gradientColor=none;fillColor=#B0084D;strokeColor=none;dashed=0;verticalLabelPosition=bottom;verticalAlign=top;align=center;html=1;fontSize=12;fontStyle=0;aspect=fixed;pointerEvents=1;shape=mxgraph.aws4.rule_2;" vertex="1" parent="UEzPUAAOIrF-is8g5C7q-205">
          <mxGeometry x="269" y="165" width="78" height="76" as="geometry" />
        </mxCell>
        <mxCell id="6b2FWjLcwO0k-tA4K5_2-15" value="ap-southeast-1a" style="text;html=1;strokeColor=none;fillColor=none;align=center;verticalAlign=middle;whiteSpace=wrap;rounded=0;" vertex="1" parent="UEzPUAAOIrF-is8g5C7q-205">
          <mxGeometry x="60" y="256.5" width="95.5" height="30" as="geometry" />
        </mxCell>
        <mxCell id="6b2FWjLcwO0k-tA4K5_2-16" value="ap-southeast-1b" style="text;html=1;strokeColor=none;fillColor=none;align=center;verticalAlign=middle;whiteSpace=wrap;rounded=0;" vertex="1" parent="UEzPUAAOIrF-is8g5C7q-205">
          <mxGeometry x="453.5" y="261.5" width="124.5" height="30" as="geometry" />
        </mxCell>
        <mxCell id="6b2FWjLcwO0k-tA4K5_2-18" value="Target group" style="text;html=1;strokeColor=none;fillColor=none;align=center;verticalAlign=middle;whiteSpace=wrap;rounded=0;" vertex="1" parent="UEzPUAAOIrF-is8g5C7q-205">
          <mxGeometry x="342.5" y="165" width="60" height="30" as="geometry" />
        </mxCell>
        <mxCell id="6b2FWjLcwO0k-tA4K5_2-19" value="ELB" style="text;html=1;strokeColor=none;fillColor=none;align=center;verticalAlign=middle;whiteSpace=wrap;rounded=0;" vertex="1" parent="UEzPUAAOIrF-is8g5C7q-205">
          <mxGeometry x="347.5" y="33.5" width="60" height="30" as="geometry" />
        </mxCell>
        <mxCell id="6b2FWjLcwO0k-tA4K5_2-14" style="edgeStyle=orthogonalEdgeStyle;rounded=0;orthogonalLoop=1;jettySize=auto;html=1;" edge="1" parent="1" source="6b2FWjLcwO0k-tA4K5_2-1" target="6b2FWjLcwO0k-tA4K5_2-2">
          <mxGeometry relative="1" as="geometry" />
        </mxCell>
        <mxCell id="6b2FWjLcwO0k-tA4K5_2-1" value="" style="sketch=0;pointerEvents=1;shadow=0;dashed=0;html=1;strokeColor=none;fillColor=#434445;aspect=fixed;labelPosition=center;verticalLabelPosition=bottom;verticalAlign=top;align=center;outlineConnect=0;shape=mxgraph.vvd.web_browser;" vertex="1" parent="1">
          <mxGeometry x="507.5" y="40" width="50" height="35.5" as="geometry" />
        </mxCell>
      </root>
    </mxGraphModel>
  </diagram>
</mxfile>
